<svg width="122" height="20" viewBox="0 0 122 20" fill="none" xmlns="http://www.w3.org/2000/svg">
<path d="M9.24022 7.25125L10.5173 3.72922L11.7943 7.25125C12.1076 8.11542 12.9285 8.69093 13.8477 8.69093H17.5369L14.7301 10.8376C14.0073 11.3904 13.703 12.3333 13.9661 13.2043L15.0211 16.6959L11.7063 14.5448C10.9831 14.0754 10.0515 14.0754 9.32826 14.5448L6.01338 16.6959L7.06837 13.2043C7.33155 12.3333 7.02719 11.3904 6.30444 10.8376L3.49765 8.69093H7.18682C8.10604 8.69093 8.92689 8.11542 9.24022 7.25125Z" fill="#DA2535" stroke="#DA2535" stroke-width="2.36842"/>
<path d="M34.4817 7.25125L35.7587 3.72922L37.0357 7.25125C37.3491 8.11542 38.1699 8.69093 39.0891 8.69093H42.7783L39.9715 10.8376C39.2488 11.3904 38.9444 12.3333 39.2076 13.2043L40.2626 16.6959L36.9477 14.5448C36.2245 14.0754 35.2929 14.0754 34.5697 14.5448L31.2548 16.6959L32.3098 13.2043C32.573 12.3333 32.2686 11.3904 31.5459 10.8376L28.7391 8.69093H32.4283C33.3475 8.69093 34.1683 8.11542 34.4817 7.25125Z" fill="#DA2535" stroke="#DA2535" stroke-width="2.36842"/>
<path d="M59.7229 7.25125L60.9999 3.72922L62.277 7.25125C62.5903 8.11542 63.4111 8.69093 64.3304 8.69093H68.0195L65.2127 10.8376C64.49 11.3904 64.1856 12.3333 64.4488 13.2043L65.5038 16.6959L62.1889 14.5448C61.4657 14.0754 60.5341 14.0754 59.8109 14.5448L56.496 16.6959L57.551 13.2043C57.8142 12.3333 57.5099 11.3904 56.7871 10.8376L53.9803 8.69093H57.6695C58.5887 8.69093 59.4096 8.11542 59.7229 7.25125Z" fill="#DA2535" stroke="#DA2535" stroke-width="2.36842"/>
<path d="M84.9643 7.25125L86.2414 3.72922L87.5184 7.25125C87.8317 8.11542 88.6526 8.69093 89.5718 8.69093H93.261L90.4542 10.8376C89.7314 11.3904 89.4271 12.3333 89.6903 13.2043L90.7453 16.6959L87.4304 14.5448C86.7072 14.0754 85.7756 14.0754 85.0524 14.5448L81.7375 16.6959L82.7925 13.2043C83.0557 12.3333 82.7513 11.3904 82.0286 10.8376L79.2218 8.69093H82.9109C83.8302 8.69093 84.651 8.11542 84.9643 7.25125Z" fill="#DA2535" stroke="#DA2535" stroke-width="2.36842"/>
<path d="M110.206 7.25125L111.483 3.72922L112.76 7.25125C113.073 8.11542 113.894 8.69093 114.813 8.69093H118.502L115.696 10.8376C114.973 11.3904 114.669 12.3333 114.932 13.2043L115.987 16.6959L112.672 14.5448C111.949 14.0754 111.017 14.0754 110.294 14.5448L106.979 16.6959L108.034 13.2043C108.297 12.3333 107.993 11.3904 107.27 10.8376L104.463 8.69093H108.152C109.072 8.69093 109.892 8.11542 110.206 7.25125Z" fill="#DA2535" stroke="#DA2535" stroke-width="2.36842"/>
</svg>
